<svg width="28" height="60" viewBox="0 0 28 60" fill="none" xmlns="http://www.w3.org/2000/svg"><path d="M4.091 49.143c-.07-.162-.097-.273-.157-.36-1.114-1.573-1.81-3.314-2.16-5.212-.173-.931-.447-1.844-.668-2.767a64.302 64.302 0 01-.36-1.61C.548 38.258.33 37.325.17 36.38c-.205-1.21-.284-2.43.117-3.62.136-.402.353-.775.529-1.163.05-.112.114-.228.126-.346.044-.454.076-.91.102-1.366.07-1.204.156-2.407.19-3.612.029-.98-.026-1.96-.015-2.94.019-1.742.06-3.484.09-5.226.011-.668-.003-1.337.032-2.003a45.17 45.17 0 01.202-2.585c.128-1.15.325-2.292.435-3.443.085-.879.053-1.769.123-2.65.08-1.007.189-2.014.336-3.013.097-.655.25-1.308.442-1.943.199-.66.71-1.123 1.196-1.57A3.35 3.35 0 016.372 0c.774-.002 1.403.345 1.86.975.573.79.668 1.71.745 2.654.102 1.26-.055 2.508-.06 3.762-.003.507-.003 1.016-.015 1.523-.003.133-.052.264-.072.398-.016.111-.064.244-.023.333.237.523.114 1.066.106 1.6-.011.696-.06 1.392-.099 2.089-.045.83-.103 1.661-.136 2.493-.009.222.053.448.082.672.071.563.167 1.125.205 1.692.035.516.007 1.038.07 1.586.082-.11.18-.213.242-.334.318-.609.611-1.232.946-1.831.122-.22.315-.413.51-.577.347-.289.712-.56 1.088-.812.184-.123.403-.23.618-.264.969-.153 1.878-.037 2.687.6.254.2.588.3.892.433 1.525.664 2.22 1.81 1.971 3.519-.008.056-.001.113-.001.138.358-.095.7-.216 1.05-.273.993-.161 1.767.312 2.478.922.33.284.647.584.952.894.783.798.99 1.779.864 2.858-.01.09-.001.183-.001.265.526.136 1.047.264 1.564.408.136.038.27.105.385.188.78.566 1.306 1.292 1.407 2.285.067.67-.13 1.297-.267 1.938a14.372 14.372 0 00-.267 1.592c-.056.557-.072 1.12-.061 1.68.012.622.072 1.242.117 1.862.04.55.081 1.1.133 1.65.113 1.198.268 2.394.34 3.596.07 1.159.081 2.324.072 3.486-.006.672-.05 1.354-.172 2.014-.16.882-.506 1.713-.95 2.494-.327.576-.685 1.135-1.024 1.704-.202.34-.225.715-.163 1.092.034.211.128.366.397.388.35.029.706.084 1.04.19.919.296 1.31.754 1.16 1.836-.166 1.196-.316 2.395-.48 3.591-.062.453-.15.901-.216 1.353-.088.6-.948 1.26-1.46 1.272-1.164.027-2.33.075-3.495.065a55.896 55.896 0 01-3.641-.132c-2.1-.157-4.198-.351-6.294-.56a36.11 36.11 0 01-3.02-.415c-1.244-.23-2.518-.401-3.655-1.002-.856-.453-1.74-.89-2.25-1.806-.282-.504-.305-1.027-.284-1.573.037-.967.063-1.934.108-2.9.022-.488.047-.979.124-1.46.092-.578.674-1.02 1.254-1.01.092.002.183 0 .356 0l.002.002zm6.976-24.456l.099-.08c.769.203.987.932 1.391 1.53.076-.179.187-.38.145-.54-.128-.489-.321-.96-.477-1.44-.04-.127-.038-.266-.055-.399.137.023.322-.002.403.077.262.258.487.555.742.856.147-.272.208-.573.116-.881-.087-.298-.234-.578-.323-.875-.033-.108.028-.244.046-.367.115.018.244.01.339.063.092.051.151.164.22.255.062.082.118.17.178.257l.096-.038c-.025-.21-.02-.431-.083-.63-.102-.328-.248-.642-.376-.962-.065-.164-.12-.339.08-.436.21-.103.324.045.41.215.082.163.16.329.263.538.11-.321.104-.568-.053-.823a5.171 5.171 0 01-.373-.752c-.03-.071.013-.209.07-.268.044-.045.166-.02.251-.013.054.004.106.03.265.081-.17-.626-.29-1.186-.487-1.718-.07-.19-.314-.334-.505-.457-.18-.116-.409-.153-.591-.265-.344-.212-.706-.235-1.139-.2.09.076.132.123.184.153.697.404 1.042 1.026 1.01 1.815-.043 1.018-.448 1.934-1.078 2.707-.513.628-1.375.467-1.665-.213-.147-.346-.43-.573-.769-.747-.22-.112-.307-.054-.398.154-.12.273-.232.57-.425.787-.391.44-.832.838-1.258 1.247-.544.523-1.102 1.02-1.388 1.76a11.02 11.02 0 01-.779 1.593 27.753 27.753 0 01-1.177 1.796c-.67.965-1.333 1.937-2.043 2.873-.853 1.126-1.25 2.388-1.109 3.775.105 1.028.339 2.045.558 3.058.27 1.25.58 2.491.88 3.734.273 1.134.508 2.28.844 3.394.439 1.455 1.147 2.763 2.328 3.774.584.499 1.193.944 1.933 1.164.476.142.963.265 1.453.34 1.2.185 2.403.35 3.607.5.978.12 1.958.215 2.938.31.728.07 1.458.122 2.265.188-.087-.098-.107-.132-.137-.153-.223-.153-.46-.289-.666-.463-.073-.061-.07-.213-.1-.324.093-.01.193-.05.277-.026.179.05.365.106.52.205.488.31 1.024.451 1.588.508.61.06 1.179-.072 1.712-.378-.105-.035-.205-.032-.305-.036-.72-.024-1.41-.163-1.999-.603-.144-.107-.226-.307-.31-.478-.024-.047.032-.162.084-.209.03-.026.133.01.191.041.128.068.242.165.374.224 1.172.533 2.343.471 3.508-.025.498-.211.985-.447 1.487-.647.103-.041.25.027.377.045.016.033.032.067.05.1l.648-1.135c-.257.072-.462.185-.669.296-1.206.65-2.467.986-3.835.627-.359-.094-.748-.162-.969-.511-.051-.083-.044-.242.002-.332.025-.048.213-.064.29-.023.86.438 1.757.454 2.669.238 1.172-.277 2.167-.906 3.05-1.696.384-.344.386-.895.473-1.4-.353.324-.658.633-.992.908-.62.508-1.258.993-2.08 1.127-.899.145-1.715-.06-2.425-.628-.096-.077-.09-.283-.131-.429.13 0 .285-.045.387.01 1.302.694 2.475.448 3.53-.5.587-.526 1.129-1.104 1.686-1.663.055-.055.11-.143.11-.216.01-.556.006-1.113.006-1.743-.123.138-.195.222-.27.304-.49.534-.96 1.09-1.48 1.593-.451.435-1 .743-1.618.892-.48.115-.957.114-1.376-.182-.103-.072-.133-.248-.196-.376.129-.039.27-.13.385-.106.77.168 1.416-.122 2.017-.543 1.027-.72 1.701-1.756 2.407-2.76a.348.348 0 00.07-.203c-.03-.405-.072-.809-.118-1.293-.345.54-.626 1.009-.934 1.458-.443.647-.947 1.244-1.65 1.621-.373.2-.78.31-1.189.072-.06-.034-.124-.13-.117-.191.005-.053.105-.134.167-.138.703-.041 1.13-.525 1.566-.983.775-.816 1.278-1.815 1.802-2.797.069-.127.168-.267.164-.398-.012-.424-.065-.848-.102-1.272a.613.613 0 00-.227.26c-.46.964-1.01 1.864-1.858 2.538-.142.113-.325.22-.497.234-.131.011-.276-.126-.414-.197.068-.11.126-.227.209-.323.058-.07.168-.095.224-.165.426-.538.906-1.045 1.25-1.632.42-.716.735-1.495 1.074-2.256.15-.336.007-.733-.318-1.008-.034.053-.072.1-.098.154-.281.578-.533 1.172-.848 1.73-.217.383-.46.784-.94.904-.077.018-.17-.029-.256-.046.021-.081.018-.183.067-.24.6-.7.937-1.546 1.319-2.367.02-.044.007-.101.01-.153a.774.774 0 00-.275.34c-.268.61-.714 1.081-1.311 1.321-.99.398-2.018.693-3.02 1.059-.513.187-1.053.362-1.493.67-.512.358-.936.847-1.379 1.298-.095.098-.137.275-.155.421-.117.949-.216 1.9-.331 2.848-.061.501-.21.987.023 1.5.104.228.057.53.057.799 0 .2-.084.42-.297.41-.152-.007-.337-.15-.432-.285-.11-.156-.137-.37-.204-.569-.176.322-.315.637-.507.913-.227.327-.425.708-.846.83-.099.028-.26-.032-.336-.108-.04-.038.012-.222.072-.305.31-.427.64-.84.956-1.263.161-.216.271-.49.473-.653.318-.253.193-.552.244-.887-.247.36-.424.7-.676.966-.288.307-.635.56-.975.81-.06.045-.246-.01-.314-.08-.044-.045.007-.203.043-.3.024-.062.1-.102.15-.156.339-.375.685-.745 1.012-1.132.194-.23.322-.522.538-.723.34-.315.213-.665.177-1.024-.208.23-.388.469-.564.71a4.13 4.13 0 01-1.671 1.365c-.156.07-.329.126-.437-.073-.112-.208.075-.271.197-.356.298-.208.65-.365.884-.629.517-.582.962-1.228 1.46-1.828.208-.252.17-.48.065-.777-.454.724-1.055 1.25-1.706 1.72a3.83 3.83 0 01-.785.442c-.12.05-.292-.032-.44-.054.063-.127.098-.286.195-.375.62-.566 1.286-1.086 1.875-1.681.393-.396.451-.977.622-1.548-.395.482-.703.962-1.112 1.327-.412.367-.92.63-1.4.911-.082.048-.241-.036-.365-.059.047-.115.065-.258.146-.34.204-.205.434-.388.66-.573a5.188 5.188 0 001.506-2c.133-.312.078-.447-.176-.588-.417.514-.796 1.045-1.244 1.51-.312.323-.71.566-1.087.818-.086.058-.246.006-.372.004.042-.135.048-.301.133-.399.245-.282.565-.506.774-.81.37-.535.688-1.108 1.014-1.673.124-.214-.007-.311-.182-.355-.206.368-.38.724-.595 1.053a3.219 3.219 0 01-1.274 1.112c-.093.047-.243-.02-.367-.034.041-.108.059-.237.129-.32.245-.294.54-.55.757-.861.306-.439.543-.92.634-1.473l-.337-.115c-.037.13-.067.236-.1.342-.154.507-.416.949-.837 1.271-.1.077-.278.05-.422.07.013-.142-.008-.298.044-.424.173-.41.379-.807.554-1.216.032-.074.005-.246-.04-.264-.09-.038-.245-.044-.311.012-.31.26-.606.539-.892.826-.242.244-.462.508-.692.764l-.123-.053c.075-.324.102-.669.234-.968.22-.502.513-.973.763-1.463.072-.141.186-.339.14-.452-.315-.758-.623-1.421-1.758-1.365-.381.019-.767-.027-1.149-.068-.09-.01-.171-.116-.256-.178.084-.075.158-.17.254-.221.088-.047.205-.036.301-.073.174-.067.34-.15.558-.248-.112-.077-.151-.118-.197-.133-.402-.133-.808-.251-1.204-.396-.107-.038-.186-.15-.278-.227.094-.065.183-.17.284-.186.172-.029.368-.045.525.012.398.143.78.332 1.17.497.088.037.215.102.273.068.18-.107.334-.255.547-.426-.344-.16-.607-.312-.889-.409-.323-.11-.665-.161-.991-.26-.088-.028-.15-.138-.225-.21.074-.072.139-.188.224-.206.19-.04.396-.07.584-.037.533.094 1.06.221 1.61.34.156-.246.164-.289-.18-.492-.327-.195-.687-.336-1.03-.503-.169-.082-.343-.21-.245-.403.051-.101.261-.167.4-.167.17 0 .346.07.507.138.293.123.577.266.959.444-.057-.205-.054-.37-.135-.45-.213-.208-.468-.37-.693-.568-.096-.083-.157-.206-.235-.31.128-.046.261-.138.383-.125.193.021.378.114.602.187-.032-.08-.043-.12-.062-.156-.23-.437-.131-.613.354-.64.147-.008.294-.022.479-.036-.075-.138-.15-.224-.168-.32-.038-.188-.044-.383-.063-.575.174.095.375.16.513.293.152.144.244.35.358.522.288-.063.273-.233.172-.407-.256-.442-.527-.874-.787-1.314-.061-.102-.102-.216-.152-.324l.002.004zm15.15 28.476c-.302.034-.526.073-.75.08-.917.028-1.813-.138-2.717-.257-1.137-.149-2.292-.16-3.437-.262-2.561-.228-5.12-.473-7.68-.718-1.839-.176-3.666-.434-5.448-.935a19.544 19.544 0 01-1.904-.66c-.76-.302-1.213-.05-1.237.748-.035 1.12-.008 2.242-.09 3.357-.07.965.327 1.609 1.094 2.115.951.629 1.97 1.064 3.103 1.22.874.121 1.746.264 2.623.365 1.362.157 2.724.324 4.09.42 1.816.128 3.635.214 5.454.273 1.668.054 3.338.039 5.007.072.743.015 1.1-.318 1.277-.94.11-.388.16-.796.216-1.198.095-.7.18-1.403.256-2.106.058-.523.096-1.047.143-1.574zM7.8 21.863c.176-.154.344-.336.299-.658-.031-.222.007-.455.028-.683.04-.45.086-.897-.335-1.221-.055-.042-.079-.122-.123-.18-.541-.71-1.076-1.426-1.633-2.123-.126-.159-.293-.313-.118-.468.099-.088.366-.084.498-.012.202.11.378.295.519.483.427.568.83 1.152 1.256 1.748.013-.245.019-.5.042-.752.026-.27-.033-.467-.292-.623-.207-.125-.367-.334-.54-.513-.632-.654-1.27-1.294-2.195-1.535-.122-.032-.203-.222-.303-.34.141-.06.3-.196.421-.168.341.076.69.178.994.346.736.407 1.314 1.003 1.87 1.654l-.42-1.113c.385-.211.173-.575.24-.905-.279.114-.333-.097-.412-.233-.235-.406-.445-.826-.684-1.23-.148-.251-.343-.474-.492-.724-.098-.164-.157-.368.045-.504.188-.127.297.032.413.158.576.625.896 1.378 1.112 2.196.066-.432.108-.861.137-1.292.005-.062-.053-.13-.089-.193-.092-.163-.195-.32-.281-.486-.327-.633-.676-1.247-1.274-1.674-.056-.04-.113-.158-.093-.208.028-.07.14-.162.198-.151.164.03.361.068.471.178.333.329.63.694.94 1.046-.207-.58-.412-1.184-.764-1.683-.304-.43-.772-.745-1.173-1.106-.122-.11-.322-.218-.172-.393.079-.09.318-.136.433-.084.316.142.644.304.897.536.35.322.635.715.948 1.078a2.485 2.485 0 00-.287-.597c-.291-.442-.25-.568.264-.69-.017-.204-.027-.411-.06-.615-.01-.064-.073-.126-.125-.174-.136-.122-.296-.22-.415-.356-.4-.45-.781-.915-1.179-1.367-.11-.127-.292-.257-.138-.41.08-.079.336-.078.445-.007.241.155.46.36.652.576.258.292.482.615.72.924l.105-.023c-.044-.263-.027-.56-.145-.783-.249-.466-.569-.892-.86-1.336-.101-.156-.227-.305-.29-.476-.041-.113.01-.26.021-.391.128.034.28.036.377.11.189.146.347.332.518.501l.11-.07c-.175-.45-.364-.895-.52-1.351-.04-.115.022-.263.037-.396.15.018.31.012.449.064.097.037.163.155.282.276.034-.743-.131-1.367-.491-1.915-.306-.466-.766-.746-1.344-.703-.734.055-1.404.315-1.904.87-.323.357-.666.75-.829 1.19-.478 1.297-.545 2.683-.685 4.046-.074.722.014 1.46-.042 2.184-.078 1.013-.221 2.021-.338 3.03-.135 1.169-.313 2.334-.396 3.506-.078 1.109-.057 2.223-.08 3.336-.02.945-.053 1.891-.054 2.837-.004 1.611.036 3.223.011 4.833-.013.894-.12 1.786-.192 2.678-.024.291-.071.58-.108.87.028.008.055.015.082.024.24-.285.508-.55.716-.857a143.846 143.846 0 002.129-3.231c.199-.312.326-.67.483-1.009.235-.507.394-1.052.82-1.46.484-.465.946-.957 1.44-1.46-.034-.058-.081-.148-.136-.234-.198-.306-.401-.61-.598-.916-.104-.164-.2-.333-.001-.5.205-.173.342-.019.481.108a.508.508 0 01.102.118c.202.356.401.714.605 1.078zm11.845 8.29c.484.217.614.617.82.997.056-.105.103-.172.132-.246.276-.73.552-1.46.823-2.192.23-.624.468-1.247.676-1.879.164-.493.306-.995.425-1.502.198-.851.175-1.684-.386-2.411a5.889 5.889 0 00-1.884-1.611c-.564-.303-1.198-.374-1.801-.082-.29.14-.648.299-.652.69-.01.863.018 1.725.04 2.587.023.897.107 1.796.067 2.69a3.732 3.732 0 01-.398 1.445c-.33.665-.95 1.054-1.613 1.362-.344.16-.675.347-1.012.522l.043.081.737-.355c-.168.663-.715.908-1.044 1.379.653-.026 1.252-.136 1.82.24.515.34.97.709 1.24 1.286.265-1.023-.482-1.746-.71-2.65.219.068.437.142.591.285.773.716 1.069 1.598.845 2.674.212-.131.458-.25.53-.438.252-.659.08-1.284-.246-1.887-.17-.314-.289-.655-.43-.984l.093-.05c.749.582 1.364 1.25 1.367 2.314.44-.34.46-.418.28-.868a7.847 7.847 0 01-.284-.795c-.047-.17-.043-.356-.068-.6l-.001-.002zM12.37 16.685c.515.206.957.4 1.411.558.437.152.714.437.879.863.67 1.741.639 3.495.041 5.235-.266.774-.672 1.5-.976 2.263-.214.541-.487 1.046-.95 1.381-.418.302-.56.74-.813 1.15.988.079 2.03-.088 2.577 1.04-.021-.299-.09-.552-.111-.81-.008-.096.07-.26.15-.29.082-.033.26.025.311.1.102.15.163.335.21.514.065.244.101.495.15.743l.121.015c.029-.092.104-.201.078-.274a45.75 45.75 0 00-.607-1.6c-.08-.203-.248-.434 0-.584.234-.14.412.07.531.257.14.219.272.448.367.69.14.353.242.72.363 1.088.284-.084.37-.227.205-.503-.112-.187-.173-.402-.268-.599-.244-.503-.4-1.056-.842-1.45-.073-.065-.1-.28-.048-.363.05-.08.276-.145.342-.099.23.164.492.342.616.58.288.56.503 1.156.756 1.757.037-.075.096-.151.111-.236.104-.571.276-1.145.278-1.718.004-.89-.102-1.782-.176-2.673-.033-.393-.053-.8-.168-1.172-.23-.744-.523-1.469-.783-2.204-.025-.071.01-.164.017-.246.084.024.185.025.247.074a.96.96 0 01.212.269c.169.29.327.586.49.88l.078-.003c.037-.544.104-1.088.1-1.632-.003-.302-.054-.644-.203-.898-.322-.55-.81-.925-1.427-1.148a4.66 4.66 0 01-1.091-.586c-.657-.464-1.37-.452-2.176-.369h-.002zm11.932 15.922c.26-.497.49-.973.756-1.428.167-.287.214-.565.175-.894-.07-.604-.232-1.163-.593-1.659-.113-.154-.218-.35-.024-.501.185-.145.357-.03.48.13.14.181.282.364.388.565.11.209.18.44.266.661.096-.261.1-.528.178-.769.28-.858-.613-1.855-1.236-2.14-.406-.185-.88-.223-1.323-.325-.215-.05-.333.018-.405.248-.32 1.019-.666 2.03-.992 3.047a13.907 13.907 0 01-1.315 2.882c-.265.445-.573.859-1.053 1.116-.284.152-.539.361-.81.547.956.381 1.93.746 1.698 2.091.803-.094.952-.252.882-.976-.034-.35-.121-.697-.176-1.046-.03-.194-.045-.392-.072-.642.436.2.6.517.716.851.116.337.183.69.27 1.033.452-.254.545-.394.461-.88-.062-.369-.175-.728-.276-1.089-.13-.464-.27-.924-.405-1.386.848.515 1.132 1.35 1.388 2.236.18-.208.32-.418.451-.636.14-.236.163-.456.017-.725-.146-.267-.203-.584-.32-.941.482.04.601.387.874.631v-.001zm-9.612 2.476c.848-.071 1.596-.357 2.028-1.165.103-.194.139-.526.041-.705-.25-.464-.7-.794-1.208-.838-.502-.044-1.022.103-1.531.182-.075.012-.153.105-.2.18a9.802 9.802 0 00-.45.743c-.39.735-.162 1.346.654 1.493.212.038.425.07.666.11zm-5.345-14.54c.663.213 1.072.632 1.38 1.18.051.092.25.188.332.156.18-.071.392-.188.483-.348.34-.596.667-1.2.77-1.9.146-.997-.321-1.358-.908-1.648-.24-.118-.447-.059-.59.174-.48.777-.958 1.556-1.468 2.386zm4.578 9.338c.007-.309-.217-.754-.39-.858-.588-.351-1.664-.19-2.171.325-.135.137-.239.263-.165.492.03.098-.07.27-.157.367-.348.388-.259.802-.102 1.223.127.342.445.382.737.397.495.025.948-.142 1.305-.487.444-.427.962-.82.942-1.46h.001zm4.383 4.803c-.124 0-.25-.005-.374 0-.675.03-1.057.364-1.18 1.025-.06.331.169.891.433 1.006.399.173.8.261 1.239.094.386-.147.796-.233 1.191-.358a.507.507 0 00.206-.151c.238-.268.227-.73-.017-1.008-.397-.455-.905-.641-1.498-.61v.002zm4.17 16.16l.077.115 1.187-.937-.09-.115-1.175.937z" fill="#fff"/><path d="M14.715 46.845c.067.366-.192.766-.513.82-.209.035-.32-.073-.265-.255.06-.206.518-.544.777-.565zM21.813 54.777c.479.01.796.322.785.773-.01.506-.49.96-1.006.956-.432-.004-.826-.44-.813-.9.014-.521.415-.842 1.034-.83v.001zM7.89 20.971c-.162-.193-.332-.381-.485-.582-.269-.354-.538-.71-.784-1.08-.068-.101-.116-.294-.064-.375.048-.077.255-.11.365-.074.136.043.26.161.363.272.366.393.644.84.744 1.377.025.132-.01.275-.017.412l-.121.05zM21.228 25.234l-.244.493c-.082-.162-.19-.316-.242-.487a25.88 25.88 0 01-.406-1.469c-.03-.122.017-.264.028-.396.11.056.254.085.326.173.396.477.405 1.073.538 1.686zM20.403 24.597c-.058.095-.095.23-.162.246-.07.018-.21-.055-.246-.126-.19-.38-.367-.769-.527-1.163-.03-.073.012-.226.073-.27.062-.045.214-.036.28.014a.764.764 0 01.234.317c.127.316.23.643.348.982zM23.8 28.021c.149.078.251.097.287.157.191.316.376.637.537.97.03.064-.03.22-.096.267-.045.032-.211-.02-.255-.083a8.603 8.603 0 01-.59-.943c-.039-.073.067-.223.117-.367z" fill="#fff"/></svg>